<?xml version="1.0" standalone="no"?>
<!DOCTYPE svg PUBLIC "-//W3C//DTD SVG 20010904//EN"
 "http://www.w3.org/TR/2001/REC-SVG-20010904/DTD/svg10.dtd">
<svg version="1.0" xmlns="http://www.w3.org/2000/svg"
 width="512.000000pt" height="512.000000pt" viewBox="0 0 512.000000 512.000000"
 preserveAspectRatio="xMidYMid meet">

<g transform="translate(0.000000,512.000000) scale(0.100000,-0.100000)"
fill="#ffffff" stroke="none">
<path d="M2380 4954 c-160 -18 -230 -29 -330 -51 -900 -197 -1601 -880 -1820
-1775 -52 -213 -64 -322 -64 -568 0 -246 13 -358 64 -568 92 -375 262 -706
515 -1000 382 -445 916 -731 1515 -814 123 -17 478 -16 600 1 698 96 1291 459
1679 1026 207 303 338 637 397 1017 25 157 25 518 1 675 -82 521 -313 985
-671 1347 -369 374 -830 607 -1363 691 -93 15 -448 28 -523 19z m-78 -1447
c35 -15 949 -827 974 -865 25 -37 25 -127 0 -164 -10 -16 -227 -214 -482 -440
-316 -282 -476 -418 -503 -427 -121 -45 -255 105 -196 219 8 15 190 184 405
375 214 190 390 350 390 355 0 5 -177 166 -394 359 -402 358 -416 372 -416
442 0 111 121 191 222 146z"/>
</g>
</svg>
